# xmcd CD database file
#
# Track frame offsets:
#	150
#	21497
#	47356
#	69654
#	93065
#
# Disc length: 1844 seconds
#
# Revision: 0
# Processed by: cddbd v1.5.2PL0 Copyright (c) Steve Scherf et al.
# Submitted via: CDex 1.51
#
DISCID=36073205
DTITLE=Nick Ali and Cruzao - Shades Of Brown PreRelease
DYEAR=2000
DGENRE=Jazz
TTITLE0=01 - Knight Music
TTITLE1=02 - Oneness Of Mind
TTITLE2=03 - Current Con Clave
TTITLE3=04 - Two Clear Nights
TTITLE4=05 - Core Cave
EXTD=YEAR: 2000
EXTT0=
EXTT1=
EXTT2=
EXTT3=
EXTT4=
PLAYORDER=
